<?xml version="1.0" encoding="UTF-8" standalone="no"?>
<svg
   xmlns:dc="http://purl.org/dc/elements/1.1/"
   xmlns:cc="http://creativecommons.org/ns#"
   xmlns:rdf="http://www.w3.org/1999/02/22-rdf-syntax-ns#"
   xmlns:svg="http://www.w3.org/2000/svg"
   xmlns="http://www.w3.org/2000/svg"
   xmlns:sodipodi="http://sodipodi.sourceforge.net/DTD/sodipodi-0.dtd"
   xmlns:inkscape="http://www.inkscape.org/namespaces/inkscape"
   viewBox="0 0 715.43808 162.73618"
   height="162.73618"
   width="715.43811"
   xml:space="preserve"
   id="svg2"
   version="1.1"
   inkscape:version="0.91 r13725"
   sodipodi:docname="logo.svg"><sodipodi:namedview
     pagecolor="#00ffff"
     bordercolor="#666666"
     borderopacity="1"
     objecttolerance="10"
     gridtolerance="10"
     guidetolerance="10"
     inkscape:pageopacity="0"
     inkscape:pageshadow="2"
     inkscape:window-width="1920"
     inkscape:window-height="1017"
     id="namedview3377"
     showgrid="false"
     fit-margin-top="0.1"
     fit-margin-right="0.1"
     fit-margin-bottom="0.1"
     fit-margin-left="0.1"
     inkscape:zoom="1.0411767"
     inkscape:cx="265.4089"
     inkscape:cy="121.24035"
     inkscape:window-x="1592"
     inkscape:window-y="-8"
     inkscape:window-maximized="1"
     inkscape:current-layer="svg2" /><metadata
     id="metadata8"><rdf:RDF><cc:Work
         rdf:about=""><dc:format>image/svg+xml</dc:format><dc:type
           rdf:resource="http://purl.org/dc/dcmitype/StillImage" /><dc:title></dc:title></cc:Work></rdf:RDF></metadata><defs
     id="defs6"><clipPath
       id="clipPath18"
       clipPathUnits="userSpaceOnUse"><path
         id="path16"
         d="m 0,612.288 858.897,0 L 858.897,0 0,0 Z"
         inkscape:connector-curvature="0" /></clipPath><clipPath
       id="clipPath86"
       clipPathUnits="userSpaceOnUse"><path
         id="path84"
         d="m 0,612.288 858.897,0 L 858.897,0 0,0 Z"
         inkscape:connector-curvature="0" /></clipPath><clipPath
       id="clipPath100"
       clipPathUnits="userSpaceOnUse"><path
         id="path98"
         d="m 0,612.288 858.897,0 L 858.897,0 0,0 Z"
         inkscape:connector-curvature="0" /></clipPath><clipPath
       id="clipPath114"
       clipPathUnits="userSpaceOnUse"><path
         id="path112"
         d="m 0,612.288 858.897,0 L 858.897,0 0,0 Z"
         inkscape:connector-curvature="0" /></clipPath></defs><g
     transform="matrix(1.3333333,0,0,-1.3333333,-216.90666,526.52399)"
     id="g10"><g
       id="g12"><g
         clip-path="url(#clipPath18)"
         id="g14"><g
           transform="translate(345.082,283.2939)"
           id="g20"><path
             style="fill:#ffffff;fill-opacity:1;fill-rule:nonzero;stroke:none"
             d="M 17.232422 35.978516 C 7.809755 35.978516 0.099609375 43.688662 0.099609375 53.111328 L 0.099609375 131.66602 C 0.099609375 141.08868 7.809755 148.79883 17.232422 148.79883 L 243.20312 148.79883 L 243.20312 35.978516 L 17.232422 35.978516 z M 156.33398 54.894531 C 169.51665 56.206531 176.76027 63.484422 178.07227 76.732422 L 178.07227 85.09375 L 164.69531 85.09375 L 164.69531 77.224609 C 164.16998 72.10861 161.38198 69.321328 156.33398 68.861328 C 151.15265 69.321328 148.33171 72.10861 147.87305 77.224609 L 147.87305 108.80078 C 148.39705 113.91545 151.21798 116.63951 156.33398 116.96484 C 161.31798 116.57151 164.10465 113.85145 164.69531 108.80078 L 164.69531 100.43945 L 178.07227 100.43945 L 178.07227 108.80078 C 176.62827 121.85278 169.38332 129.00209 156.33398 130.24609 C 143.08465 129.06609 135.90435 121.91811 134.79102 108.80078 L 134.79102 76.732422 C 135.83902 63.484422 143.02065 56.206531 156.33398 54.894531 z M 42.607422 55.027344 C 44.273589 55.053844 45.993005 55.271974 47.763672 55.681641 L 47.859375 55.681641 C 52.252708 56.993641 56.484115 59.06024 60.550781 61.878906 C 62.518781 62.929573 64.615656 64.041323 66.847656 65.222656 C 64.290323 68.959989 61.830083 72.796422 59.46875 76.732422 C 57.502083 75.684422 55.5654 74.537682 53.664062 73.291016 C 51.433396 71.980349 49.122469 70.814208 46.730469 69.796875 C 44.335802 68.782208 41.924713 68.633516 39.498047 69.353516 C 34.054047 72.501516 33.072828 76.63338 36.548828 81.748047 C 39.171495 83.848047 41.891557 85.619833 44.712891 87.0625 C 47.531557 88.5705 50.384818 90.144536 53.271484 91.783203 C 59.172818 94.407203 62.814073 98.736904 64.191406 104.76758 C 64.45274 105.68624 64.583984 106.77029 64.583984 108.01562 L 64.583984 108.11328 C 64.451984 115.65461 61.402213 121.56031 55.435547 125.82031 C 49.466214 130.08298 42.909719 131.09847 35.761719 128.86914 C 35.693719 128.86914 35.662109 128.80254 35.662109 128.67188 C 29.956776 126.4425 24.676838 123.58928 19.826172 120.11328 C 21.726172 116.50661 23.857417 112.70384 26.21875 108.70117 C 27.989417 109.88251 29.924767 111.06547 32.023438 112.24414 C 34.252771 113.75481 36.614089 115.06635 39.107422 116.17969 C 41.596755 117.29569 44.12235 117.26141 46.679688 116.08008 C 51.467687 112.67074 52.220693 108.63647 48.943359 103.98047 C 46.386026 101.81647 43.729276 99.916724 40.974609 98.275391 C 37.891943 96.768724 35.005026 95.160411 32.318359 93.455078 C 26.481026 91.029745 22.841104 86.89788 21.398438 81.060547 C 20.938434 80.076547 20.77425 78.962844 20.90625 77.714844 L 20.90625 77.617188 C 20.90625 70.337184 23.612767 64.454271 29.023438 59.960938 C 33.081437 56.591934 37.608922 54.947844 42.607422 55.027344 z M 68.673828 55.679688 L 89.625 55.679688 C 102.87167 56.993021 110.15284 64.272865 111.46484 77.519531 C 110.15284 90.834198 102.87167 98.079766 89.625 99.259766 L 82.050781 99.259766 L 82.050781 129.46094 L 68.673828 129.46094 L 68.673828 55.679688 z M 115.25781 55.681641 L 128.53711 55.681641 L 128.53711 129.46094 L 115.25781 129.46094 L 115.25781 55.681641 z M 179.4082 55.681641 L 194.95117 55.681641 C 198.16317 64.208307 201.37518 72.667214 204.58984 81.060547 C 207.80318 72.667214 211.0158 64.208307 214.23047 55.681641 L 225.05078 55.681641 L 229.9707 55.681641 C 224.46137 68.862974 218.9843 82.012287 213.54297 95.126953 C 212.8203 97.02962 212.06596 98.900328 211.2793 100.73633 L 211.2793 129.45898 L 198 129.45898 L 198 100.93164 C 192.556 87.750308 187.11064 74.569385 181.66797 61.386719 C 180.8813 59.550719 180.1282 57.649641 179.4082 55.681641 z M 82.050781 69.158203 L 82.050781 85.978516 L 89.232422 85.978516 C 94.347088 85.519849 97.13375 82.702198 97.59375 77.519531 C 97.13375 72.404865 94.347088 69.618203 89.232422 69.158203 L 82.050781 69.158203 z "
             transform="matrix(0.75000002,0,0,-0.75000002,-182.402,111.5991)"
             id="path22" /></g><g
           transform="translate(210.8232,316.3174)"
           id="g24" /><g
           transform="translate(229.604,330.4087)"
           id="g28" /><g
           transform="translate(296.2349,331.0723)"
           id="g34" /><g
           transform="translate(335.1577,353.1323)"
           id="g38" /><g
           transform="translate(414.4639,367.6606)"
           id="g42"><path
             id="path44"
             style="fill:#ffffff;fill-opacity:1;fill-rule:nonzero;stroke:none"
             d="m 0,0 0.114,-84.431 -15.31,0 0,53.473 c -4.803,-8.18 -9.645,-16.285 -14.523,-24.315 -4.879,8.105 -9.757,16.247 -14.634,24.428 l 0,-53.586 -15.085,0 0,84.431 12.946,0 c 5.553,-8.932 11.145,-17.825 16.773,-26.68 5.629,8.855 11.258,17.748 16.886,26.68 z"
             inkscape:connector-curvature="0" /></g><g
           transform="translate(453.7031,324.5444)"
           id="g46"><path
             id="path48"
             style="fill:#ffffff;fill-opacity:1;fill-rule:nonzero;stroke:none"
             d="m 0,0 0,18.238 c -0.602,5.928 -3.866,9.192 -9.795,9.794 -5.929,-0.602 -9.157,-3.866 -9.68,-9.794 L -19.475,0 Z M -9.795,44.017 C 5.365,42.44 13.734,34.071 15.311,18.913 l 0,-61.127 -15.311,0 0,27.017 -19.475,0 0,-27.017 -15.309,0 0,61.127 c 1.424,15.158 9.756,23.527 24.989,25.104"
             inkscape:connector-curvature="0" /></g><g
           transform="translate(522.8867,283.3437)"
           id="g50"><path
             id="path52"
             style="fill:#ffffff;fill-opacity:1;fill-rule:nonzero;stroke:none"
             d="m 0,0 -16.322,0 c -6.006,14.482 -12.047,29.005 -18.126,43.564 l 0,-43.564 -15.083,0 0,84.317 15.871,0 c 6.079,-14.859 12.232,-29.646 18.462,-44.354 l 0,44.242 15.198,0 z"
             inkscape:connector-curvature="0" /></g><g
           transform="translate(561.4492,334.0015)"
           id="g54"><path
             id="path56"
             style="fill:#ffffff;fill-opacity:1;fill-rule:nonzero;stroke:none"
             d="m 0,0 0,9.118 c -0.525,5.855 -3.677,9.043 -9.455,9.569 -5.932,-0.526 -9.119,-3.714 -9.57,-9.569 l 0,-36.247 c 0.451,-5.856 3.638,-9.008 9.57,-9.457 6.304,0.073 9.602,3.265 9.904,9.568 l 0,1.351 -9.904,0 0,15.084 24.878,0 0,-16.435 C 13.771,-42.102 5.478,-50.32 -9.455,-51.671 c -15.163,1.274 -23.417,9.493 -24.766,24.653 l 0,36.587 c 1.275,15.159 9.529,23.488 24.766,24.991 C 5.628,33.057 13.921,24.728 15.423,9.569 l 0,-9.569 z"
             inkscape:connector-curvature="0" /></g><g
           transform="translate(643.9766,386.605)"
           id="g58"><path
             id="path60"
             style="fill:#ffffff;fill-opacity:1;fill-rule:nonzero;stroke:none"
             d="m 0,0 c -4.406,-1.884 -8.157,4.287 -16.234,0.739 -10.245,-4.503 -8.969,-11.754 -8.969,-11.754 0,0 2.846,3.752 4.899,4.801 5.256,2.69 9.337,2.008 9.337,2.008 0,0 -7.771,-1.406 -12.096,-7.11 -3.084,-4.065 -2.554,-10 -2.554,-10 0,0 1.115,7.324 4.387,7.558 5.03,0.358 7.663,-3.575 21.174,1.609 C 8.106,-9.018 8.527,8.213 8.527,8.213 8.527,8.213 6.736,2.881 0,0"
             inkscape:connector-curvature="0" /></g><g
           transform="translate(598.96,374.1191)"
           id="g62"><path
             id="path64"
             style="fill:#ffffff;fill-opacity:1;fill-rule:nonzero;stroke:none"
             d="m 0,0 c 5.495,-1.182 8.704,-0.805 15.089,0.864 3.044,0.802 3.199,-5.367 3.199,-5.367 0,0 0.802,4.981 -1.905,7.272 -2.684,2.28 -9.649,1.772 -9.649,1.772 0,0 3.66,2.202 7.465,0.665 1.485,-0.598 4.112,-2.739 4.112,-2.739 0,0 -0.555,4.98 -7.92,7.457 -5.809,1.95 -8.485,0.176 -11.187,-1.521 -4.307,-2.707 -8.829,-9.235 -8.829,-9.235 0,0 3.688,2.11 9.625,0.832"
             inkscape:connector-curvature="0" /></g><g
           transform="translate(684.2246,325.4702)"
           id="g66"><path
             id="path68"
             style="fill:#ffffff;fill-opacity:1;fill-rule:nonzero;stroke:none"
             d="m 0,0 c -3.182,1.806 -6.324,3.541 -9.434,5.203 -3.108,1.59 -6.106,3.541 -8.997,5.855 -3.831,5.638 -2.748,10.191 3.252,13.66 2.674,0.794 5.329,0.632 7.968,-0.488 2.637,-1.121 5.186,-2.404 7.644,-3.849 2.093,-1.375 4.229,-2.639 6.396,-3.794 2.603,4.337 5.313,8.565 8.13,12.684 -2.457,1.302 -4.77,2.529 -6.937,3.687 -4.482,3.107 -9.143,5.383 -13.986,6.83 l -0.108,0 c -7.807,1.806 -14.691,0.234 -20.653,-4.716 -5.963,-4.952 -8.945,-11.438 -8.945,-19.46 l 0,-0.109 c -0.037,-0.35 -0.052,-0.69 -0.047,-1.02 0.107,-0.419 0.214,-0.835 0.314,-1.265 0.114,-0.492 0.198,-0.979 0.295,-1.468 1.598,-6.397 5.604,-10.929 12.015,-13.593 2.961,-1.88 6.144,-3.652 9.539,-5.313 3.035,-1.808 5.964,-3.902 8.782,-6.288 3.614,-5.132 2.784,-9.577 -2.493,-13.336 -2.818,-1.301 -5.603,-1.337 -8.347,-0.106 -2.747,1.225 -5.35,2.672 -7.807,4.336 -1.503,0.844 -8.628,5.128 -13.972,8.383 -1.754,-4.764 -4.099,-9.127 -6.67,-12.986 7.987,-4.903 19.957,-11.668 24.654,-13.503 0,-0.144 0.034,-0.217 0.108,-0.217 7.876,-2.456 15.104,-1.337 21.684,3.362 6.576,4.695 9.936,11.201 10.082,19.512 l 0,0.11 c 0,1.372 -0.146,2.565 -0.434,3.579 C 10.516,-7.663 6.504,-2.893 0,0"
             inkscape:connector-curvature="0" /></g><g
           transform="translate(621.3711,306.2236)"
           id="g70"><path
             id="path72"
             style="fill:#ffffff;fill-opacity:1;fill-rule:nonzero;stroke:none"
             d="m 0,0 c -0.6,-5.854 -3.825,-8.969 -9.68,-9.344 -5.855,0.375 -9.046,3.49 -9.568,9.344 l 0,36.361 c 0.522,5.779 3.713,8.967 9.568,9.569 5.855,-0.527 9.08,-3.715 9.68,-9.569 z m -6.099,55.573 c 0,0 0.37,-1.923 1.562,-2.128 1.638,-0.284 2.213,1.677 2.213,1.677 0,0 0.298,-0.468 0.217,-1.117 -0.095,-0.801 -1.15,-1.645 -2.316,-1.506 -1.165,0.127 -1.912,0.695 -2.021,1.827 -0.088,0.875 0.345,1.247 0.345,1.247 M 23.584,31.569 c -5.03,21.714 -18.235,26.316 -26.639,27.343 0,0 -0.283,-1.024 -0.224,-1.879 0.056,-0.857 0.195,-2.361 0.195,-2.361 0,0 -0.533,-0.682 -1.221,-0.604 -0.693,0.078 -0.991,1.074 -0.991,1.074 0,0 0.049,1.643 0.082,2.435 0.03,0.683 0.284,1.541 0.284,1.541 -1.148,0.085 -2.158,0.112 -2.99,0.122 0,0 -19.978,-0.027 -28.94,-16.492 -8.959,-16.462 2,-34.496 1.928,-47.777 -0.047,-9.039 -9.179,-15.878 -2.927,-25.157 6.254,-9.283 30.99,4.699 38.177,8.805 7.188,4.104 29.431,26.338 23.266,52.95"
             inkscape:connector-curvature="0" /></g></g></g></g></svg>